<svg id="visual" viewBox="0 0 600 900" width="600" height="900" xmlns="http://www.w3.org/2000/svg" xmlns:xlink="http://www.w3.org/1999/xlink" version="1.1"><rect x="0" y="0" width="600" height="900" fill="#e1ece3"></rect><g transform="translate(294.5419814947172 435.73607083181747)"><path d="M157.8 -224.8C192.5 -191.9 200.4 -129.8 223.5 -69.9C246.6 -10.1 285 47.5 285.8 107.7C286.7 167.9 250 230.8 196.1 260.1C142.2 289.4 71.1 285.2 -1.2 286.8C-73.5 288.5 -146.9 295.9 -176.7 258.7C-206.4 221.6 -192.4 139.8 -209.5 71.7C-226.7 3.6 -275 -50.7 -274.9 -101.1C-274.7 -151.5 -226.1 -197.9 -172.2 -224.6C-118.3 -251.2 -59.2 -258.1 1.2 -259.7C61.5 -261.3 123 -257.7 157.8 -224.8" fill="none" stroke="#62d089" stroke-width="6"></path></g></svg>