<svg id="visual" viewBox="0 0 960 540" width="960" height="540" xmlns="http://www.w3.org/2000/svg" xmlns:xlink="http://www.w3.org/1999/xlink" version="1.1"><rect x="0" y="0" width="960" height="540" fill="#e1ece3"></rect><defs><linearGradient id="grad1_0" x1="43.8%" y1="0%" x2="100%" y2="100%"><stop offset="14.444444444444446%" stop-color="#62d089" stop-opacity="1"></stop><stop offset="85.55555555555554%" stop-color="#62d089" stop-opacity="1"></stop></linearGradient></defs><defs><linearGradient id="grad1_1" x1="43.8%" y1="0%" x2="100%" y2="100%"><stop offset="14.444444444444446%" stop-color="#62d089" stop-opacity="1"></stop><stop offset="85.55555555555554%" stop-color="#e1ece3" stop-opacity="1"></stop></linearGradient></defs><defs><linearGradient id="grad2_0" x1="0%" y1="0%" x2="56.3%" y2="100%"><stop offset="14.444444444444446%" stop-color="#62d089" stop-opacity="1"></stop><stop offset="85.55555555555554%" stop-color="#62d089" stop-opacity="1"></stop></linearGradient></defs><defs><linearGradient id="grad2_1" x1="0%" y1="0%" x2="56.3%" y2="100%"><stop offset="14.444444444444446%" stop-color="#e1ece3" stop-opacity="1"></stop><stop offset="85.55555555555554%" stop-color="#62d089" stop-opacity="1"></stop></linearGradient></defs><g transform="translate(960, 0)"><path d="M0 297C-54.4 290.6 -108.8 284.3 -148.5 257.2C-188.2 230.1 -213.3 182.3 -235.6 136C-257.9 89.7 -277.4 44.8 -297 0L0 0Z" fill="#a7dfb5"></path><path d="M0 148.5C-27.2 145.3 -54.4 142.1 -74.2 128.6C-94.1 115.1 -106.6 91.2 -117.8 68C-128.9 44.8 -138.7 22.4 -148.5 0L0 0Z" fill="#62d089"></path></g><g transform="translate(0, 540)"><path d="M0 -297C46.7 -280.7 93.4 -264.3 139.5 -241.6C185.6 -218.9 231.1 -189.8 257.2 -148.5C283.4 -107.2 290.2 -53.6 297 0L0 0Z" fill="#a7dfb5"></path><path d="M0 -148.5C23.4 -140.3 46.7 -132.2 69.7 -120.8C92.8 -109.5 115.5 -94.9 128.6 -74.3C141.7 -53.6 145.1 -26.8 148.5 0L0 0Z" fill="#62d089"></path></g></svg>