<svg id="visual" viewBox="0 0 960 540" width="960" height="540" xmlns="http://www.w3.org/2000/svg" xmlns:xlink="http://www.w3.org/1999/xlink" version="1.1"><rect x="0" y="0" width="960" height="540" fill="#e1ece3"></rect><g transform="translate(451.58521757835945 270.2390997997038)"><path d="M134 -212.9C182.8 -204.1 237.5 -186.4 267.9 -149.5C298.2 -112.5 304.1 -56.3 303.2 -0.5C302.2 55.2 294.4 110.3 267.3 152.8C240.1 195.2 193.6 224.9 145.8 232.5C98 240.1 49 225.5 4.5 217.7C-40 209.9 -80 208.9 -118.2 195.8C-156.5 182.7 -193 157.6 -215.2 123C-237.3 88.3 -245.2 44.2 -246.3 -0.7C-247.5 -45.5 -241.9 -91 -224 -133C-206.1 -175 -175.8 -213.5 -136.4 -227.8C-97 -242 -48.5 -232 -2.9 -227C42.7 -221.9 85.3 -221.8 134 -212.9" fill="none" stroke="#62d089" stroke-width="6"></path></g></svg>