<svg id="visual" viewBox="0 0 675 900" width="675" height="900" xmlns="http://www.w3.org/2000/svg" xmlns:xlink="http://www.w3.org/1999/xlink" version="1.1"><rect x="0" y="0" width="675" height="900" fill="#e1ece3"></rect><defs><linearGradient id="grad1_0" x1="0%" y1="0%" x2="100%" y2="100%"><stop offset="30%" stop-color="#62d089" stop-opacity="1"></stop><stop offset="70%" stop-color="#62d089" stop-opacity="1"></stop></linearGradient></defs><defs><linearGradient id="grad1_1" x1="0%" y1="0%" x2="100%" y2="100%"><stop offset="30%" stop-color="#62d089" stop-opacity="1"></stop><stop offset="70%" stop-color="#e1ece3" stop-opacity="1"></stop></linearGradient></defs><defs><linearGradient id="grad2_0" x1="0%" y1="0%" x2="100%" y2="100%"><stop offset="30%" stop-color="#62d089" stop-opacity="1"></stop><stop offset="70%" stop-color="#62d089" stop-opacity="1"></stop></linearGradient></defs><defs><linearGradient id="grad2_1" x1="0%" y1="0%" x2="100%" y2="100%"><stop offset="30%" stop-color="#e1ece3" stop-opacity="1"></stop><stop offset="70%" stop-color="#62d089" stop-opacity="1"></stop></linearGradient></defs><g transform="translate(675, 0)"><path d="M0 365.6C-40.5 340.4 -81.1 315.2 -123.6 298.4C-166.1 281.6 -210.6 273.3 -248.9 248.9C-287.2 224.5 -319.4 184.1 -337.8 139.9C-356.2 95.8 -360.9 47.9 -365.6 0L0 0Z" fill="#a7dfb5"></path><path d="M0 182.8C-20.3 170.2 -40.5 157.6 -61.8 149.2C-83.1 140.8 -105.3 136.6 -124.5 124.5C-143.6 112.3 -159.7 92 -168.9 70C-178.1 47.9 -180.5 23.9 -182.8 0L0 0Z" fill="#62d089"></path></g><g transform="translate(0, 900)"><path d="M0 -365.6C45.1 -348.5 90.3 -331.3 128.2 -309.5C166.1 -287.7 196.9 -261.2 234.1 -234.1C271.2 -206.9 314.8 -179 337.8 -139.9C360.8 -100.8 363.2 -50.4 365.6 0L0 0Z" fill="#a7dfb5"></path><path d="M0 -182.8C22.6 -174.2 45.1 -165.7 64.1 -154.7C83.1 -143.8 98.4 -130.6 117 -117C135.6 -103.4 157.4 -89.5 168.9 -70C180.4 -50.4 181.6 -25.2 182.8 0L0 0Z" fill="#62d089"></path></g></svg>