<svg id="visual" viewBox="0 0 960 540" width="960" height="540" xmlns="http://www.w3.org/2000/svg" xmlns:xlink="http://www.w3.org/1999/xlink" version="1.1"><g stroke-width="1" stroke-linejoin="bevel"><path d="M442 384L248 540L444 540Z" fill="#cae7d0" stroke="#cae7d0"></path><path d="M442 384L255 369L248 540Z" fill="#b3e2be" stroke="#b3e2be"></path><path d="M442 384L214 198L255 369Z" fill="#9bdcac" stroke="#9bdcac"></path><path d="M255 369L0 540L248 540Z" fill="#b3e2be" stroke="#b3e2be"></path><path d="M701 329L472 144L442 384Z" fill="#b3e2be" stroke="#b3e2be"></path><path d="M442 384L472 144L214 198Z" fill="#8ed9a3" stroke="#8ed9a3"></path><path d="M0 345L0 540L255 369Z" fill="#72d392" stroke="#72d392"></path><path d="M444 540L698 540L442 384Z" fill="#b3e2be" stroke="#b3e2be"></path><path d="M214 198L0 345L255 369Z" fill="#bfe4c7" stroke="#bfe4c7"></path><path d="M698 540L701 329L442 384Z" fill="#80d69a" stroke="#80d69a"></path><path d="M202 0L0 167L214 198Z" fill="#d6eada" stroke="#d6eada"></path><path d="M214 198L0 167L0 345Z" fill="#e1ece3" stroke="#e1ece3"></path><path d="M713 0L450 0L472 144Z" fill="#8ed9a3" stroke="#8ed9a3"></path><path d="M472 144L450 0L214 198Z" fill="#b3e2be" stroke="#b3e2be"></path><path d="M701 329L733 187L472 144Z" fill="#9bdcac" stroke="#9bdcac"></path><path d="M960 359L733 187L701 329Z" fill="#bfe4c7" stroke="#bfe4c7"></path><path d="M450 0L202 0L214 198Z" fill="#9bdcac" stroke="#9bdcac"></path><path d="M202 0L0 0L0 167Z" fill="#e1ece3" stroke="#e1ece3"></path><path d="M733 187L713 0L472 144Z" fill="#e1ece3" stroke="#e1ece3"></path><path d="M698 540L960 359L701 329Z" fill="#8ed9a3" stroke="#8ed9a3"></path><path d="M733 187L960 156L713 0Z" fill="#80d69a" stroke="#80d69a"></path><path d="M960 540L960 359L698 540Z" fill="#62d089" stroke="#62d089"></path><path d="M960 359L960 156L733 187Z" fill="#62d089" stroke="#62d089"></path><path d="M960 156L960 0L713 0Z" fill="#8ed9a3" stroke="#8ed9a3"></path></g></svg>