<svg id="visual" viewBox="0 0 960 540" width="960" height="540" xmlns="http://www.w3.org/2000/svg" xmlns:xlink="http://www.w3.org/1999/xlink" version="1.1"><path d="M0 114L14.5 111.3C29 108.7 58 103.3 87.2 107.8C116.3 112.3 145.7 126.7 174.8 139.3C204 152 233 163 262 168.5C291 174 320 174 349 165.8C378 157.7 407 141.3 436.2 139.5C465.3 137.7 494.7 150.3 523.8 155.8C553 161.3 582 159.7 611 152.5C640 145.3 669 132.7 698 131.7C727 130.7 756 141.3 785.2 146.7C814.3 152 843.7 152 872.8 142.2C902 132.3 931 112.7 945.5 102.8L960 93L960 0L945.5 0C931 0 902 0 872.8 0C843.7 0 814.3 0 785.2 0C756 0 727 0 698 0C669 0 640 0 611 0C582 0 553 0 523.8 0C494.7 0 465.3 0 436.2 0C407 0 378 0 349 0C320 0 291 0 262 0C233 0 204 0 174.8 0C145.7 0 116.3 0 87.2 0C58 0 29 0 14.5 0L0 0Z" fill="#e1ece3"></path><path d="M0 136L14.5 136C29 136 58 136 87.2 140.5C116.3 145 145.7 154 174.8 169.3C204 184.7 233 206.3 262 217.2C291 228 320 228 349 214.5C378 201 407 174 436.2 171.3C465.3 168.7 494.7 190.3 523.8 196.7C553 203 582 194 611 183.2C640 172.3 669 159.7 698 162.3C727 165 756 183 785.2 191C814.3 199 843.7 197 872.8 187C902 177 931 159 945.5 150L960 141L960 91L945.5 100.8C931 110.7 902 130.3 872.8 140.2C843.7 150 814.3 150 785.2 144.7C756 139.3 727 128.7 698 129.7C669 130.7 640 143.3 611 150.5C582 157.7 553 159.3 523.8 153.8C494.7 148.3 465.3 135.7 436.2 137.5C407 139.3 378 155.7 349 163.8C320 172 291 172 262 166.5C233 161 204 150 174.8 137.3C145.7 124.7 116.3 110.3 87.2 105.8C58 101.3 29 106.7 14.5 109.3L0 112Z" fill="#b8e3c2"></path><path d="M0 206L14.5 203.3C29 200.7 58 195.3 87.2 196.3C116.3 197.3 145.7 204.7 174.8 218.2C204 231.7 233 251.3 262 263.8C291 276.3 320 281.7 349 268.2C378 254.7 407 222.3 436.2 214.3C465.3 206.3 494.7 222.7 523.8 229.8C553 237 582 235 611 229.5C640 224 669 215 698 219.5C727 224 756 242 785.2 244.7C814.3 247.3 843.7 234.7 872.8 219.3C902 204 931 186 945.5 177L960 168L960 139L945.5 148C931 157 902 175 872.8 185C843.7 195 814.3 197 785.2 189C756 181 727 163 698 160.3C669 157.7 640 170.3 611 181.2C582 192 553 201 523.8 194.7C494.7 188.3 465.3 166.7 436.2 169.3C407 172 378 199 349 212.5C320 226 291 226 262 215.2C233 204.3 204 182.7 174.8 167.3C145.7 152 116.3 143 87.2 138.5C58 134 29 134 14.5 134L0 134Z" fill="#8cd9a2"></path><path d="M0 233L14.5 232.2C29 231.3 58 229.7 87.2 229.7C116.3 229.7 145.7 231.3 174.8 243C204 254.7 233 276.3 262 289.8C291 303.3 320 308.7 349 295.2C378 281.7 407 249.3 436.2 244C465.3 238.7 494.7 260.3 523.8 271.2C553 282 582 282 611 274.8C640 267.7 669 253.3 698 253.3C727 253.3 756 267.7 785.2 272.2C814.3 276.7 843.7 271.3 872.8 260.5C902 249.7 931 233.3 945.5 225.2L960 217L960 166L945.5 175C931 184 902 202 872.8 217.3C843.7 232.7 814.3 245.3 785.2 242.7C756 240 727 222 698 217.5C669 213 640 222 611 227.5C582 233 553 235 523.8 227.8C494.7 220.7 465.3 204.3 436.2 212.3C407 220.3 378 252.7 349 266.2C320 279.7 291 274.3 262 261.8C233 249.3 204 229.7 174.8 216.2C145.7 202.7 116.3 195.3 87.2 194.3C58 193.3 29 198.7 14.5 201.3L0 204Z" fill="#62d089"></path><path d="M0 282L14.5 282C29 282 58 282 87.2 282C116.3 282 145.7 282 174.8 293.7C204 305.3 233 328.7 262 339.5C291 350.3 320 348.7 349 336C378 323.3 407 299.7 436.2 296C465.3 292.3 494.7 308.7 523.8 314.2C553 319.7 582 314.3 611 306.2C640 298 669 287 698 289.7C727 292.3 756 308.7 785.2 312.3C814.3 316 843.7 307 872.8 294.3C902 281.7 931 265.3 945.5 257.2L960 249L960 215L945.5 223.2C931 231.3 902 247.7 872.8 258.5C843.7 269.3 814.3 274.7 785.2 270.2C756 265.7 727 251.3 698 251.3C669 251.3 640 265.7 611 272.8C582 280 553 280 523.8 269.2C494.7 258.3 465.3 236.7 436.2 242C407 247.3 378 279.7 349 293.2C320 306.7 291 301.3 262 287.8C233 274.3 204 252.7 174.8 241C145.7 229.3 116.3 227.7 87.2 227.7C58 227.7 29 229.3 14.5 230.2L0 231Z" fill="#62d089"></path><path d="M0 330L14.5 336.3C29 342.7 58 355.3 87.2 367.2C116.3 379 145.7 390 174.8 398.2C204 406.3 233 411.7 262 411.7C291 411.7 320 406.3 349 396.3C378 386.3 407 371.7 436.2 366.2C465.3 360.7 494.7 364.3 523.8 367.2C553 370 582 372 611 371.2C640 370.3 669 366.7 698 372.8C727 379 756 395 785.2 395C814.3 395 843.7 379 872.8 361C902 343 931 323 945.5 313L960 303L960 247L945.5 255.2C931 263.3 902 279.7 872.8 292.3C843.7 305 814.3 314 785.2 310.3C756 306.7 727 290.3 698 287.7C669 285 640 296 611 304.2C582 312.3 553 317.7 523.8 312.2C494.7 306.7 465.3 290.3 436.2 294C407 297.7 378 321.3 349 334C320 346.7 291 348.3 262 337.5C233 326.7 204 303.3 174.8 291.7C145.7 280 116.3 280 87.2 280C58 280 29 280 14.5 280L0 280Z" fill="#8cd9a2"></path><path d="M0 406L14.5 405.2C29 404.3 58 402.7 87.2 409C116.3 415.3 145.7 429.7 174.8 438.7C204 447.7 233 451.3 262 453.2C291 455 320 455 349 447.7C378 440.3 407 425.7 436.2 424.7C465.3 423.7 494.7 436.3 523.8 438.2C553 440 582 431 611 423C640 415 669 408 698 417C727 426 756 451 785.2 456.3C814.3 461.7 843.7 447.3 872.8 425.8C902 404.3 931 375.7 945.5 361.3L960 347L960 301L945.5 311C931 321 902 341 872.8 359C843.7 377 814.3 393 785.2 393C756 393 727 377 698 370.8C669 364.7 640 368.3 611 369.2C582 370 553 368 523.8 365.2C494.7 362.3 465.3 358.7 436.2 364.2C407 369.7 378 384.3 349 394.3C320 404.3 291 409.7 262 409.7C233 409.7 204 404.3 174.8 396.2C145.7 388 116.3 377 87.2 365.2C58 353.3 29 340.7 14.5 334.3L0 328Z" fill="#b8e3c2"></path><path d="M0 541L14.5 541C29 541 58 541 87.2 541C116.3 541 145.7 541 174.8 541C204 541 233 541 262 541C291 541 320 541 349 541C378 541 407 541 436.2 541C465.3 541 494.7 541 523.8 541C553 541 582 541 611 541C640 541 669 541 698 541C727 541 756 541 785.2 541C814.3 541 843.7 541 872.8 541C902 541 931 541 945.5 541L960 541L960 345L945.5 359.3C931 373.7 902 402.3 872.8 423.8C843.7 445.3 814.3 459.7 785.2 454.3C756 449 727 424 698 415C669 406 640 413 611 421C582 429 553 438 523.8 436.2C494.7 434.3 465.3 421.7 436.2 422.7C407 423.7 378 438.3 349 445.7C320 453 291 453 262 451.2C233 449.3 204 445.7 174.8 436.7C145.7 427.7 116.3 413.3 87.2 407C58 400.7 29 402.3 14.5 403.2L0 404Z" fill="#e1ece3"></path></svg>